<svg height="512pt" viewBox="-20 0 512 512.001" width="512pt" xmlns="http://www.w3.org/2000/svg"><path d="M426.492 356.484H44.582c17.5 0 27.395-9.156 33.012-24.332 27.168-73.285-45.2-286.851 157.949-286.851 203.144 0 130.766 213.566 157.937 286.851 5.625 15.176 15.524 24.332 33.012 24.332zm0 0" fill="#f7d360"/><path d="M463.469 393.457c0 20.422-16.559 36.977-36.977 36.977H44.582c-10.21 0-19.457-4.137-26.148-10.829-6.692-6.69-10.829-15.937-10.829-26.148 0-20.418 16.555-36.973 36.977-36.973h381.91c10.211 0 19.457 4.137 26.149 10.829s10.828 15.937 10.828 26.144zm0 0" fill="#e58e13"/><path d="M393.48 332.152h-198.5c-21.398 0-38.511-17.714-37.847-39.105 2.797-90.5-11.637-246.027 76.922-247.738-243.094 1.257-87.7 311.175-189.47 311.175h381.907c-17.488 0-27.387-9.156-33.012-24.332zm0 0" fill="#e58e13"/><path d="M463.469 393.457c0 20.422-16.559 36.977-36.977 36.977H151.43c-10.207 0-19.453-4.137-26.145-10.829-6.691-6.69-10.828-15.937-10.828-26.148 0-20.418 16.555-36.973 36.973-36.973h275.062c10.211 0 19.457 4.137 26.149 10.829s10.828 15.937 10.828 26.144zm0 0" fill="#f7d360"/><path d="M309.492 430.434c0 34.004-22.945 62.636-54.18 71.285a74.039 74.039 0 01-19.769 2.676c-40.852 0-73.961-33.114-73.961-73.961zm0 0" fill="#e58e13"/><path d="M305.914 453.246c-7.613 23.5-26.676 41.852-50.601 48.473-15.043-4.16-28.16-12.953-37.723-24.746-7.707-9.508-.754-23.727 11.484-23.727zm0 0" fill="#f7d360"/><path d="M273.125 48.129c.082-.934.113-1.875.113-2.828 0-20.817-16.883-37.696-37.695-37.696-20.828 0-37.695 16.88-37.695 37.696 0 .953.027 1.894.109 2.828" fill="#e58e13"/><path d="M426.492 348.875h-.031c-14.723-.008-23.035-7.648-27.793-25.531-4.863-18.29-5.027-44.813-5.2-72.895-.206-34.023-.44-72.586-8.898-107.074a7.608 7.608 0 00-9.199-5.574c-4.074 1-6.57 5.117-5.574 9.195 8.035 32.75 8.262 70.363 8.465 103.547.18 29.078.343 56.543 5.707 76.707 2.332 8.77 5.676 15.977 9.996 21.625H77.109c4.32-5.648 7.664-12.855 9.996-21.625 5.364-20.164 5.532-47.629 5.707-76.707.27-44.395.579-94.711 18.743-133.219 20.445-43.347 61-64.422 123.984-64.422 34.59 0 62.895 6.5 84.125 19.325 18.41 11.117 31.926 26.918 41.32 48.304a7.602 7.602 0 0010.02 3.903 7.605 7.605 0 003.906-10.02c-10.55-24.016-26.492-42.59-47.383-55.207-13.336-8.055-28.996-13.863-46.832-17.402C278.898 18.457 259.34 0 235.54 0c-23.8 0-43.363 18.46-45.148 41.813-17.016 3.37-32.059 8.804-44.97 16.285-20.773 12.039-36.796 29.785-47.624 52.738-19.594 41.543-19.914 93.644-20.192 139.613-.171 28.082-.332 54.606-5.199 72.895-4.758 17.883-13.07 25.523-27.793 25.531h-.031C20 348.875 0 368.875 0 393.461c0 24.582 20 44.582 44.582 44.582h48.129a7.603 7.603 0 100-15.207H44.582c-16.195 0-29.375-13.18-29.375-29.375s13.176-29.371 29.371-29.375H426.496c16.191.004 29.367 13.18 29.367 29.375s-13.18 29.375-29.375 29.375h-303.36c-4.198 0-7.6 3.402-7.6 7.601s3.402 7.606 7.6 7.606h31.216C158.19 479.465 193.129 512 235.539 512c42.406 0 77.344-32.535 81.191-73.957h109.762c24.582 0 44.582-20 44.582-44.582 0-24.586-20-44.586-44.582-44.586zM235.54 15.207c14.563 0 26.742 10.402 29.504 24.164-9.336-1.101-19.164-1.676-29.504-1.676s-20.168.57-29.5 1.672c2.762-13.762 14.938-24.16 29.5-24.16zm0 481.586c-34.016 0-62.121-25.734-65.906-58.75H301.44c-3.785 33.016-31.89 58.75-65.902 58.75zm0 0M357.633 47.723c.137.074 13.676 7.8 26.996 25.75 17.844 24.039 26.887 54.07 26.887 89.261 0 4.2 3.406 7.606 7.605 7.606 4.2 0 7.606-3.406 7.606-7.606 0-48.445-16.543-80.601-30.422-99.043-15.25-20.265-30.645-28.91-31.293-29.27-3.668-2.023-8.27-.694-10.309 2.962-2.039 3.66-.723 8.285 2.93 10.34zm0 0M415.004 50.512c1.223.8 29.969 20.093 29.969 68.633 0 4.199 3.406 7.601 7.605 7.601s7.602-3.402 7.602-7.601c0-57.25-35.465-80.48-36.977-81.442-3.527-2.246-8.191-1.207-10.457 2.313-2.266 3.515-1.246 8.21 2.258 10.496zm0 0M51.95 170.34c4.198 0 7.605-3.406 7.605-7.606 0-35.191 9.047-65.222 26.886-89.261 13.239-17.836 26.696-25.578 26.993-25.75a7.603 7.603 0 00-7.375-13.301c-.649.36-16.043 9.004-31.293 29.27-13.875 18.44-30.418 50.597-30.418 99.042 0 4.2 3.402 7.606 7.601 7.606zm0 0M18.496 126.746a7.6 7.6 0 007.602-7.601c0-48.5 28.703-67.805 29.968-68.63a7.606 7.606 0 002.301-10.476c-2.254-3.543-6.953-4.586-10.5-2.332-1.508.961-36.976 24.188-36.976 81.438 0 4.199 3.406 7.601 7.605 7.601zm0 0"/></svg>