<svg xmlns="http://www.w3.org/2000/svg" viewBox="0 0 512.001 512.001"><linearGradient id="a" gradientUnits="userSpaceOnUse" x1="307.491" y1="216.705" x2="554.651" y2="-30.455" gradientTransform="matrix(1.0039 0 0 -1.0039 .192 516.56)"><stop offset="0" stop-color="#a7f3ce"/><stop offset="1" stop-color="#61db99"/></linearGradient><path d="M340.366 164.133c93.488-1.428 169.792 72.153 171.602 165.634.266 13.725-1.106 27.084-3.932 39.898-4.786 21.697-7.631 43.776-7.631 65.995v42.948c0 6.58-5.334 11.914-11.914 11.914h-42.948c-22.219 0-44.298 2.845-65.995 7.631-12.813 2.826-26.172 4.198-39.897 3.932-93.48-1.809-167.061-78.111-165.635-171.597 1.391-91.25 75.101-164.961 166.35-166.355z" fill="url(#a)"/><linearGradient id="b" gradientUnits="userSpaceOnUse" x1="388.399" y1="135.803" x2="283.418" y2="240.773" gradientTransform="matrix(1.0039 0 0 -1.0039 .192 516.56)"><stop offset="0" stop-color="#61db99" stop-opacity="0"/><stop offset="1" stop-color="#009e74"/></linearGradient><path d="M340.366 164.133c93.488-1.428 169.792 72.153 171.602 165.634.266 13.725-1.106 27.084-3.932 39.898-4.786 21.697-7.631 43.776-7.631 65.995v42.948c0 6.58-5.334 11.914-11.914 11.914h-42.948c-22.219 0-44.298 2.845-65.995 7.631-12.813 2.826-26.172 4.198-39.897 3.932-93.48-1.809-167.061-78.111-165.635-171.597 1.391-91.25 75.101-164.961 166.35-166.355z" fill="url(#b)"/><linearGradient id="c" gradientUnits="userSpaceOnUse" x1="129.97" y1="332.774" x2="390.92" y2="71.824" gradientTransform="matrix(1.0039 0 0 -1.0039 .192 516.56)"><stop offset="0" stop-color="#62e1fb"/><stop offset="1" stop-color="#00a2f3"/></linearGradient><path d="M209.098 9.909C95.204 8.169 2.245 97.81.039 211.696c-.323 16.719 1.348 32.996 4.792 48.606 5.83 26.432 9.296 53.331 9.296 80.4v52.322c0 8.016 6.498 14.515 14.515 14.515h52.322c27.068 0 53.967 3.466 80.4 9.296 15.61 3.443 31.886 5.115 48.605 4.791 113.884-2.205 203.525-95.161 201.789-209.053-1.696-111.167-91.494-200.967-202.66-202.664z" fill="url(#c)"/><linearGradient id="d" gradientUnits="userSpaceOnUse" x1="179.038" y1="218.193" x2="41.644" y2="355.583" gradientTransform="matrix(1.0039 0 0 -1.0039 .192 516.56)"><stop offset="0" stop-color="#00a2f3" stop-opacity="0"/><stop offset="1" stop-color="#0075cd"/></linearGradient><path d="M132.193 204.739c-5.816-6.18-14.048-10.061-23.206-10.061-17.613 0-31.891 14.278-31.891 31.891 0 9.157 3.88 17.389 10.061 23.206l68.794 68.794c5.817 6.18 14.049 10.061 23.206 10.061 17.613 0 31.891-14.278 31.891-31.891 0-9.157-3.881-17.389-10.061-23.206l-68.794-68.794z" fill="url(#d)"/><circle cx="108.986" cy="226.565" r="31.891" fill="#fff"/><linearGradient id="e" gradientUnits="userSpaceOnUse" x1="268.872" y1="218.196" x2="131.482" y2="355.586" gradientTransform="matrix(1.0039 0 0 -1.0039 .192 516.56)"><stop offset="0" stop-color="#00a2f3" stop-opacity="0"/><stop offset="1" stop-color="#0075cd"/></linearGradient><path d="M222.383 204.739c-5.816-6.18-14.048-10.061-23.206-10.061-17.613 0-31.891 14.278-31.891 31.891 0 9.157 3.88 17.389 10.061 23.206l68.794 68.794c5.817 6.18 14.049 10.061 23.206 10.061 17.613 0 31.891-14.278 31.891-31.891 0-9.157-3.881-17.389-10.061-23.206l-68.794-68.794z" fill="url(#e)"/><circle cx="199.178" cy="226.565" r="31.891" fill="#fff"/><linearGradient id="f" gradientUnits="userSpaceOnUse" x1="358.71" y1="218.195" x2="221.32" y2="355.584" gradientTransform="matrix(1.0039 0 0 -1.0039 .192 516.56)"><stop offset="0" stop-color="#00a2f3" stop-opacity="0"/><stop offset="1" stop-color="#0075cd"/></linearGradient><path d="M312.572 204.739c-5.816-6.18-14.048-10.061-23.206-10.061-17.613 0-31.891 14.278-31.891 31.891 0 9.157 3.881 17.389 10.061 23.206l68.794 68.794c5.817 6.18 14.049 10.061 23.206 10.061 17.613 0 31.891-14.278 31.891-31.891 0-9.157-3.881-17.389-10.061-23.206l-68.794-68.794z" fill="url(#f)"/><circle cx="289.371" cy="226.565" r="31.891" fill="#fff"/></svg>