<svg height="512" width="512" xmlns="http://www.w3.org/2000/svg"><path d="M496.738 192.897H463.76a210.184 210.184 0 00-16.681-38.89l31.797-31.622a14.816 14.816 0 00.048-21.04l-67.797-68.026a15.399 15.399 0 00-10.87-4.504h-.034a15.396 15.396 0 00-10.857 4.457l-33.218 33.04a218.06 218.06 0 00-36.946-14.8V15c0-8.284-6.833-15-15.262-15h-95.88c-8.429 0-15.262 6.716-15.262 15v36.513a218.126 218.126 0 00-36.946 14.8l-33.218-33.04a15.394 15.394 0 00-10.857-4.457h-.033a15.399 15.399 0 00-10.87 4.504l-67.797 68.026a14.816 14.816 0 00.048 21.04l31.798 31.622a210.092 210.092 0 00-16.682 38.89H15.262c-8.429 0-15.262 6.716-15.262 15v96.205c0 8.284 6.833 15 15.262 15H48.24a210.247 210.247 0 0016.682 38.889l-31.798 31.622a14.817 14.817 0 00-.048 21.04l67.797 68.027a15.399 15.399 0 0010.87 4.504h.033c4.079 0 7.989-1.604 10.857-4.457l33.218-33.041a218.126 218.126 0 0036.946 14.8V497c0 8.284 6.833 15 15.262 15h95.88c8.429 0 15.262-6.716 15.262-15v-36.514a218.126 218.126 0 0036.946-14.8l33.218 33.041a15.394 15.394 0 0010.857 4.457h.033a15.4 15.4 0 0010.871-4.504l67.797-68.027a14.816 14.816 0 00-.048-21.04l-31.797-31.622a210.237 210.237 0 0016.682-38.889h32.977c8.429 0 15.262-6.716 15.262-15v-96.205c.001-8.284-6.832-15-15.261-15zM357.086 256c0 54.78-45.347 99.348-101.086 99.348S154.913 310.78 154.913 256c0-54.781 45.347-99.349 101.086-99.349S357.086 201.219 357.086 256z"/></svg>