<svg id="Capa_1" enable-background="new 0 0 512 512" height="512" viewBox="0 0 512 512" width="512" xmlns="http://www.w3.org/2000/svg"><g><path d="m496.738 192.897h-32.978c-4.23-13.474-9.812-26.486-16.681-38.89l31.797-31.622c5.858-5.825 5.878-15.189.048-21.04l-67.797-68.026c-2.863-2.872-6.779-4.495-10.87-4.504-.012 0-.023 0-.034 0-4.079 0-7.989 1.604-10.857 4.457l-33.218 33.04c-11.835-6.048-24.195-10.999-36.946-14.8v-36.512c0-8.284-6.833-15-15.262-15h-95.88c-8.429 0-15.262 6.716-15.262 15v36.513c-12.75 3.801-25.11 8.752-36.946 14.8l-33.218-33.04c-2.868-2.853-6.777-4.457-10.857-4.457-.011 0-.022 0-.033 0-4.091.009-8.007 1.632-10.87 4.504l-67.797 68.026c-5.831 5.851-5.809 15.215.048 21.04l31.798 31.622c-6.87 12.403-12.452 25.416-16.682 38.89h-32.979c-8.429 0-15.262 6.716-15.262 15v96.205c0 8.284 6.833 15 15.262 15h32.978c4.231 13.474 9.813 26.485 16.682 38.889l-31.798 31.622c-5.857 5.825-5.878 15.189-.048 21.04l67.797 68.027c2.863 2.872 6.779 4.495 10.87 4.504h.033c4.079 0 7.989-1.604 10.857-4.457l33.218-33.041c11.836 6.048 24.196 10.999 36.946 14.8v36.513c0 8.284 6.833 15 15.262 15h95.88c8.429 0 15.262-6.716 15.262-15v-36.514c12.75-3.801 25.11-8.752 36.946-14.8l33.218 33.041c2.868 2.853 6.777 4.457 10.857 4.457h.033c4.092-.009 8.008-1.632 10.871-4.504l67.797-68.027c5.831-5.851 5.81-15.215-.048-21.04l-31.797-31.622c6.87-12.404 12.451-25.417 16.682-38.889h32.977c8.429 0 15.262-6.716 15.262-15v-96.205c.001-8.284-6.832-15-15.261-15zm-139.652 63.103c0 54.78-45.347 99.348-101.086 99.348s-101.087-44.568-101.087-99.348c0-54.781 45.347-99.349 101.086-99.349s101.087 44.568 101.087 99.349z"/></g></svg>