<svg height="512" width="512" xmlns="http://www.w3.org/2000/svg"><path d="M31.628 257.94c0-66.123 29.008-126.361 74.917-168.04-.455-.392-.906-.79-1.337-1.221L83.442 66.915c-2.87 2.618-5.696 5.3-8.462 8.066C26.629 123.332 0 187.619 0 255.999v84.774l4.474 5.368h27.154z" fill="#dbedff"/><path d="M16.454 255.999c0-68.38 26.628-132.667 74.98-181.019l.037-.036-8.029-8.029c-2.87 2.618-5.696 5.3-8.462 8.066C26.629 123.332 0 187.619 0 255.999v84.774l4.474 5.368h16.454l-4.474-5.368z" fill="#b5dcff"/><path d="M437.02 74.981a254.695 254.695 0 00-8.462-8.066L406.793 88.68c-.235.234-.486.442-.728.665 45.595 41.097 74.308 100.583 74.308 166.654v90.143h25.032l6.596-5.368V256C512 187.619 485.372 123.332 437.02 74.981z" fill="#dbedff"/><path d="M437.02 74.981a254.695 254.695 0 00-8.462-8.066L406.793 88.68c-.235.234-.486.442-.728.665 45.595 41.097 74.308 100.583 74.308 166.654v90.143h25.032l6.596-5.368V256C512 187.619 485.372 123.332 437.02 74.981z" fill="#dbedff"/><path d="M497.384 346.142v-90.143c0-63.228-26.295-120.426-68.517-161.249-3.116-3.013-3.119-8.01-.055-11.075l8.447-8.45c-.081-.081-.158-.164-.239-.245a254.695 254.695 0 00-8.462-8.066L406.793 88.68c-.235.234-.486.442-.728.665 45.595 41.097 74.308 100.583 74.308 166.654v90.143z" fill="#b5dcff"/><path d="M480.372 340.773l-4.328 3.308v58.893l4.328 4.762c17.468 0 31.628-14.16 31.628-31.628v-35.334h-31.628z" fill="#a5afe7"/><path d="M497.384 340.773h-17.012l-4.328 3.308v58.893l4.328 4.762a31.473 31.473 0 0017.012-4.971zM31.628 340.773H0v35.334c0 17.468 14.16 31.628 31.628 31.628l6.757-4.075v-57.519z" fill="#8896e0"/><path d="M16.454 376.108v-35.334H0v35.334c0 17.468 14.16 31.628 31.628 31.628l4.13-2.491c-11.345-4.805-19.304-16.041-19.304-29.137z" fill="#6b7ed9"/><path d="M256 0C191.531 0 130.705 23.679 83.436 66.908l21.771 21.771c8.4 8.4 21.645 9.39 31.254 2.405 33.6-24.426 74.914-38.853 119.539-38.853s85.938 14.427 119.539 38.853c9.609 6.985 22.854 5.995 31.254-2.405l21.771-21.771C381.295 23.679 320.469 0 256 0z" fill="#ff636e"/><path d="M156.868 52.558C193.894 24.144 237.64 6.595 284.147 1.534A260.427 260.427 0 00256 0C191.531 0 130.705 23.679 83.436 66.909l21.771 21.771c8.4 8.4 21.645 9.39 31.254 2.405a204.549 204.549 0 0116.77-10.973c-6.48-8.478-5.085-20.86 3.637-27.554z" fill="#ff4654"/><path d="M458.322 300.288h-16.049l-5.892 9.797v174.617l5.892 6.205h16.049c12.127 0 22.05-9.922 22.05-22.05V322.338c0-12.128-9.922-22.05-22.05-22.05zM69.727 300.288H53.678c-12.127 0-22.05 9.922-22.05 22.05v146.519c0 12.128 9.922 22.05 22.05 22.05h16.049l8.493-5.432V308.54z" fill="#6b7ed9"/><path d="M464.313 301.142a21.85 21.85 0 00-5.99-.854h-16.049l-5.892 9.797v174.617l5.892 6.205h16.049c2.077 0 4.082-.311 5.99-.854zM54.924 468.857V322.338c0-9.944 6.674-18.394 15.761-21.119l-.958-.931H53.678c-12.127 0-22.05 9.922-22.05 22.05v146.519c0 12.128 9.922 22.05 22.05 22.05h16.049l1.312-.84c-9.265-2.61-16.115-11.139-16.115-21.21z" fill="#4d66d2"/><path d="M366.021 279.195h61.168c8.297 0 15.085 6.788 15.085 15.085v202.635c0 8.297-6.788 15.085-15.085 15.085h-61.168c-8.297 0-15.085-6.788-15.085-15.085V294.28c0-8.296 6.788-15.085 15.085-15.085zM145.979 279.195H84.811c-8.297 0-15.085 6.788-15.085 15.085v202.635c0 8.297 6.788 15.085 15.085 15.085h61.168c8.297 0 15.085-6.788 15.085-15.085V294.28c.001-8.296-6.788-15.085-15.085-15.085z" fill="#ff636e"/><g fill="#ff4654"><path d="M388.89 496.916V294.28c0-8.297 6.788-15.085 15.085-15.085h-37.954c-8.297 0-15.085 6.789-15.085 15.085v202.635c0 8.297 6.788 15.085 15.085 15.085h37.954c-8.297 0-15.085-6.788-15.085-15.084zM107.681 496.916V294.28c0-8.297 6.788-15.085 15.085-15.085H84.811c-8.297 0-15.085 6.789-15.085 15.085v202.635c0 8.297 6.788 15.085 15.085 15.085h37.954c-8.296 0-15.084-6.788-15.084-15.084z"/></g></svg>