<svg height="512" viewBox="0 0 511.996 511.996" width="512" xmlns="http://www.w3.org/2000/svg"><path d="M38.058 257.618c0-64.185 28.158-122.658 72.721-163.115a23.28 23.28 0 01-1.298-1.185L88.354 72.19a247.88 247.88 0 00-8.214 7.83C33.205 126.955 7.357 189.358 7.357 255.734v82.29l4.343 5.211h26.358z" fill="#dbedff"/><path d="M23.328 255.734c0-66.376 25.848-128.779 72.783-175.714l.036-.035-7.794-7.794a247.88 247.88 0 00-8.214 7.83C33.205 126.955 7.357 189.358 7.357 255.734v82.29l4.343 5.211h15.972l-4.343-5.211v-82.29z" fill="#b5dcff"/><path d="M431.569 80.02a247.88 247.88 0 00-8.214-7.83l-21.127 21.127c-.228.228-.472.429-.707.646 44.259 39.893 72.13 97.636 72.13 161.771v87.501h24.298l6.403-5.211v-82.29c.001-66.376-25.848-128.779-72.783-175.714z" fill="#dbedff"/><path d="M431.569 80.02a247.88 247.88 0 00-8.214-7.83l-21.127 21.127c-.228.228-.472.429-.707.646 44.259 39.893 72.13 97.636 72.13 161.771v87.501h24.298l6.403-5.211v-82.29c.001-66.376-25.848-128.779-72.783-175.714z" fill="#dbedff"/><path d="M490.164 343.235v-87.501c0-61.375-25.524-116.897-66.51-156.523-3.025-2.924-3.028-7.775-.053-10.75l8.2-8.202c-.078-.079-.154-.16-.232-.238a247.88 247.88 0 00-8.214-7.83l-21.127 21.127c-.228.228-.472.429-.707.646 44.259 39.893 72.13 97.636 72.13 161.771v87.501h16.513z" fill="#b5dcff"/><path d="M473.651 338.024l-4.202 3.211v57.167l4.202 4.622c16.956 0 30.701-13.745 30.701-30.701v-34.299z" fill="#a5afe7"/><path d="M490.164 338.024h-16.513l-4.202 3.211v57.167l4.202 4.622a30.544 30.544 0 0016.513-4.825zM38.058 338.024H7.357v34.299c0 16.956 13.745 30.701 30.701 30.701l6.559-3.956v-55.833z" fill="#8896e0"/><path d="M23.328 372.323v-34.299H7.357v34.299c0 16.956 13.745 30.701 30.701 30.701l4.009-2.418c-11.013-4.664-18.739-15.571-18.739-28.283z" fill="#6b7ed9"/><path d="M255.854 7.237c-62.58 0-121.623 22.985-167.507 64.948l21.133 21.133c8.154 8.154 21.011 9.115 30.338 2.334 32.616-23.71 72.718-37.714 116.036-37.714s83.42 14.004 116.036 37.714c9.327 6.781 22.184 5.819 30.338-2.334l21.133-21.133C377.478 30.222 318.435 7.237 255.854 7.237z" fill="#ff636e"/><path d="M159.627 58.255c35.941-27.582 78.405-44.616 123.549-49.529a252.653 252.653 0 00-27.322-1.49c-62.58 0-121.623 22.985-167.507 64.948l21.133 21.133c8.154 8.154 21.011 9.115 30.338 2.334A198.348 198.348 0 01156.096 85c-6.289-8.228-4.935-20.248 3.531-26.745z" fill="#ff4654"/><path d="M452.248 298.725H436.67l-5.72 9.51v169.5l5.72 6.023h15.578c11.772 0 21.404-9.631 21.404-21.404V320.129c-.001-11.773-9.632-21.404-21.404-21.404zM75.04 298.725H59.461c-11.772 0-21.404 9.631-21.404 21.404v142.225c0 11.772 9.632 21.404 21.404 21.404H75.04l8.244-5.273v-171.75z" fill="#6b7ed9"/><path d="M458.063 299.554a21.212 21.212 0 00-5.815-.829H436.67l-5.72 9.51v169.5l5.72 6.023h15.578c2.016 0 3.962-.302 5.815-.829zM60.671 462.354V320.129c0-9.652 6.479-17.855 15.299-20.5l-.93-.904H59.461c-11.772 0-21.404 9.631-21.404 21.404v142.225c0 11.772 9.632 21.404 21.404 21.404H75.04l1.274-.815c-8.994-2.534-15.643-10.813-15.643-20.589z" fill="#4d66d2"/><path d="M362.651 278.25h59.376c8.054 0 14.643 6.59 14.643 14.643V489.59c0 8.054-6.589 14.643-14.643 14.643h-59.376c-8.054 0-14.643-6.589-14.643-14.643V292.893c0-8.053 6.589-14.643 14.643-14.643zM149.058 278.25H89.682c-8.054 0-14.643 6.59-14.643 14.643V489.59c0 8.054 6.589 14.643 14.643 14.643h59.376c8.054 0 14.643-6.589 14.643-14.643V292.893c0-8.053-6.589-14.643-14.643-14.643z" fill="#ff636e"/><g fill="#ff4654"><path d="M384.85 489.59V292.893c0-8.053 6.589-14.643 14.643-14.643h-36.842c-8.054 0-14.643 6.59-14.643 14.643V489.59c0 8.053 6.589 14.643 14.643 14.643h36.842c-8.054 0-14.643-6.589-14.643-14.643zM111.881 489.59V292.893c0-8.053 6.589-14.643 14.643-14.643H89.682c-8.054 0-14.643 6.59-14.643 14.643V489.59c0 8.053 6.589 14.643 14.643 14.643h36.842c-8.053 0-14.643-6.589-14.643-14.643z"/></g><path d="M30.701 410.043v52.574c0 15.938 12.966 28.904 28.903 28.904h8.148c.856 11.433 10.426 20.475 22.073 20.475H149.2c12.21 0 22.144-9.933 22.144-22.143v-80.849c0-4.142-3.357-7.5-7.5-7.5s-7.5 3.358-7.5 7.5v80.849c0 3.938-3.205 7.143-7.144 7.143H89.826c-3.938 0-7.143-3.204-7.143-7.143V293.156c0-3.938 3.204-7.143 7.143-7.143h59.375c3.938 0 7.144 3.205 7.144 7.143v80.849c0 4.142 3.357 7.5 7.5 7.5s7.5-3.358 7.5-7.5v-80.849c0-12.21-9.934-22.143-22.144-22.143H89.826c-11.647 0-21.217 9.042-22.073 20.475h-8.148a28.718 28.718 0 00-13.903 3.573v-37.18c0-57.653 23.971-113.277 65.962-153.545 10.269 5.488 22.913 4.767 32.71-2.354 66.382-48.257 156.403-48.594 223.251 0 10.093 7.337 23.129 7.837 33.458 1.942 41.516 39.645 65.212 94.719 65.212 152.073v39.064a28.718 28.718 0 00-13.903-3.573h-8.147c-.856-11.433-10.426-20.475-22.074-20.475h-12.188c-4.143 0-7.5 3.358-7.5 7.5s3.357 7.5 7.5 7.5h12.188c3.938 0 7.144 3.205 7.144 7.143v196.697c0 3.938-3.205 7.143-7.144 7.143h-59.375c-3.938 0-7.144-3.204-7.144-7.143V293.156c0-3.938 3.205-7.143 7.144-7.143h12.188c4.143 0 7.5-3.358 7.5-7.5s-3.357-7.5-7.5-7.5h-12.188c-12.21 0-22.144 9.933-22.144 22.143v196.697c0 12.209 9.934 22.143 22.144 22.143h59.375c11.648 0 21.218-9.042 22.074-20.475h8.147c15.938 0 28.903-12.966 28.903-28.904v-52.574c17.485-3.495 30.701-18.96 30.701-37.458V255.996C511.996 113.76 396.59 0 255.998 0 115.522 0 0 113.561 0 255.997v116.589c0 18.497 13.216 33.962 30.701 37.457zm435.594 52.574c0 7.667-6.237 13.904-13.903 13.904h-8.078V306.488h8.078c7.666 0 13.903 6.237 13.903 13.904zM59.604 306.488h8.079v170.033h-8.079c-7.666 0-13.903-6.237-13.903-13.904V320.392c0-7.666 6.237-13.904 13.903-13.904zm437.392 66.098c0 10.169-6.577 18.832-15.701 21.958v-48.756h15.701zm0-116.589v74.79h-15.701v-74.79c0-60.971-24.981-119.535-68.807-161.925l11.18-11.18c45.773 44.192 73.328 105.596 73.328 173.105zM255.998 15c57.715 0 113.006 20.464 156.568 57.78-18.451 18.452-14.796 14.799-16.091 16.04-5.568 5.04-13.86 5.517-20.031 1.029-71.632-52.071-168.762-52.434-240.892 0-6.425 4.671-15.108 3.954-20.624-1.571L99.43 72.78C142.992 35.463 198.283 15 255.998 15zM15 255.997c0-67.778 27.746-129.074 73.329-173.105l11.763 11.762c-44.194 42.994-69.39 102.037-69.39 163.227v72.906H15zm0 89.79h15.701v48.756C21.577 391.418 15 382.755 15 372.586z"/></svg>