<svg height="512" width="512" xmlns="http://www.w3.org/2000/svg"><path d="M360.534 499.057h-95.457c-8.023 0-14.528-6.504-14.528-14.528s6.504-14.528 14.528-14.528h95.457c51.502 0 93.403-41.9 93.403-93.403V306.34c0-8.023 6.504-14.528 14.528-14.528s14.528 6.504 14.528 14.528v70.258c-.001 67.525-54.936 122.459-122.459 122.459z" fill="#dbe8f9"/><path d="M463.137 334.977c-10.965 0-19.854-8.889-19.854-19.854v-79.856c0-103.268-84.015-187.283-187.283-187.283S68.717 131.999 68.717 235.267v79.856c0 10.966-8.889 19.854-19.854 19.854s-19.854-8.889-19.854-19.854v-79.856c0-60.631 23.611-117.634 66.484-160.507C138.366 31.886 195.368 8.275 256 8.275S373.634 31.886 416.507 74.76c42.873 42.873 66.484 99.876 66.484 160.507v79.856c.001 10.965-8.889 19.854-19.854 19.854z" fill="#756e78"/><path d="M90.209 385.082V244.811c0-10.029 8.131-18.16 18.16-18.16H88.21c-32.696 0-59.201 26.505-59.201 59.201v58.189c0 32.696 26.505 59.201 59.201 59.201h20.158c-10.029 0-18.159-8.131-18.159-18.16z" fill="#665e66"/><path d="M151.409 374.427V255.466c0-15.914-12.901-28.815-28.815-28.815h-11.87l-4.1 5.312v167.619l4.1 3.661h11.87c15.914-.001 28.815-12.902 28.815-28.816z" fill="#bcd6f9"/><path d="M412.132 226.651h-10.856l-4.464 9.272v158.048l4.464 9.272h10.856c5.102-2.606 8.603-7.901 8.603-14.024V240.674c0-6.122-3.5-11.417-8.603-14.023z" fill="#665e66"/><path d="M423.79 226.651h-23.832c8.532 0 15.449 6.917 15.449 15.449v145.693c0 8.532-6.917 15.449-15.449 15.449h23.832c32.696 0 59.201-26.505 59.201-59.201v-58.189c.001-32.696-26.505-59.201-59.201-59.201z" fill="#544f57"/><path d="M360.591 374.427V255.466c0-15.914 12.901-28.815 28.815-28.815h11.87v176.592h-11.87c-15.914-.001-28.815-12.902-28.815-28.816z" fill="#c9e0fd"/><path d="M273.159 512h52.285c15.342 0 27.78-12.437 27.78-27.78 0-15.342-12.437-27.78-27.78-27.78h-52.285c-15.342 0-27.78 12.437-27.78 27.78 0 15.343 12.438 27.78 27.78 27.78z" fill="#454045"/><path d="M391.572 118.594c2.227-3.269 2.439-7.524.508-10.977-10.113-18.077-22.785-34.869-37.834-49.918-27.617-27.617-61.101-47.224-97.637-57.692L256.561 0c-63.052-.145-122.352 24.34-166.92 68.908-18.332 18.332-33.223 38.995-44.479 61.679-7.226 14.563-.465 32.208 14.557 38.426 13.696 5.669 29.425-.244 36.03-13.514 12.587-25.287 31.004-47.226 54.181-64.337C180.859 68.329 217.537 56.259 256 56.259c39.166 0 76.385 12.473 107.634 36.07 10.239 7.733 19.603 16.568 27.938 26.265z" fill="#544f57"/><g><path d="M468.826 134.662c-11.451-24.265-27.01-46.297-46.467-65.754C377.924 24.472 318.843 0 256 0c-3.597 0-7.18.09-10.75.25 38.884 9.981 74.542 30.207 103.674 59.338 17.542 17.542 31.854 37.452 42.649 59.006 10.48 12.192 19.332 25.749 26.226 40.221 6.428 13.493 22.244 19.649 36.087 14.015l.057-.023c14.978-6.096 21.784-23.521 14.883-38.145z" fill="#454045"/></g><g><path d="M110.724 403.242V226.651h-9.177c-10.029 0-18.16 8.13-18.16 18.16v140.272c0 10.029 8.131 18.16 18.16 18.16h9.177z" fill="#544f57"/></g></svg>