<svg height="512" width="512" xmlns="http://www.w3.org/2000/svg"><path d="M384.258 247.984l30.003-12.001a16.032 16.032 0 0010.078-14.886v-26.388a16.032 16.032 0 00-10.078-14.886l-30.003-12.001-24.048 40.081z" fill="#dad8db"/><path d="M376.242 47.581H360.73c-5.336 0-10.219 2.732-13.283 7.101-35.527 50.672-93.643 81.076-155.884 81.076h-31.757c-13.282 0-24.048 10.767-24.048 24.048V256c0 13.282 10.767 24.048 24.048 24.048h31.757c62.241 0 120.357 30.404 155.884 81.076 3.064 4.37 7.946 7.101 13.283 7.101h15.512L384.258 256V55.597a8.016 8.016 0 00-8.016-8.016zM196.183 453.77l-60.425-173.721-32.065-8.016-32.065 8.016 60.385 173.606a16.032 16.032 0 0015.142 10.765h41.455c5.517-.001 9.385-5.441 7.573-10.65z" fill="#eceaec"/><path d="M111.71 256l-40.081 24.048 60.385 173.606a16.031 16.031 0 0015.142 10.765h15.562l-50.376-144.83c-1.256-3.612-.707-7.471 1.51-10.588 2.215-3.117 5.68-4.905 9.504-4.905h20.766l-8.364-24.048h55.806c62.24 0 120.357 30.404 155.884 81.076 3.064 4.37 7.946 7.101 13.283 7.101h15.512a8.016 8.016 0 008.016-8.016V256z" fill="#dad8db"/><path d="M159.806 135.758H31.548c-13.282 0-24.048 10.767-24.048 24.048V256c0 13.282 10.767 24.048 24.048 24.048h128.258z" fill="#ff8086"/><path d="M414.261 179.823l-46.035-20.017v48.097h56.113v-13.195c0-6.555-3.991-12.45-10.078-14.885z" fill="#eceaec"/><path d="M31.548 239.968v-104.21c-13.282 0-24.048 10.767-24.048 24.048V256c0 13.282 10.767 24.048 24.048 24.048h128.258V256H47.581c-8.84 0-16.033-7.192-16.033-16.032z" fill="#e5646e"/><g><path d="M417.046 172.86l-25.288-10.115V55.597c0-8.556-6.961-15.516-15.517-15.516H360.73c-7.642 0-14.903 3.849-19.424 10.295-34.191 48.768-90.17 77.882-149.744 77.882H31.548C14.152 128.258 0 142.411 0 159.807V256c0 17.396 14.152 31.548 31.548 31.548h34.749l58.633 168.569a23.55 23.55 0 0022.227 15.802h41.456c5.013 0 9.74-2.439 12.646-6.525a15.545 15.545 0 002.009-14.089l-56.959-163.757h45.255c59.574 0 115.553 29.115 149.744 77.882 4.52 6.447 11.781 10.295 19.423 10.295h15.511c8.556 0 15.517-6.96 15.517-15.516v-16.032a7.5 7.5 0 00-15 0v16.032a.517.517 0 01-.517.516H360.73c-2.757 0-5.426-1.46-7.142-3.907-36.996-52.768-97.566-84.271-162.026-84.271h-24.256V191.87a7.5 7.5 0 00-15 0v80.677H31.548C22.423 272.548 15 265.125 15 256v-96.193c0-9.125 7.423-16.548 16.548-16.548h120.758v16.549a7.5 7.5 0 0015 0v-16.549h24.256c64.459 0 125.03-31.503 162.025-84.271 1.716-2.446 4.385-3.907 7.142-3.907h15.511c.285 0 .517.231.517.516v256.516a7.5 7.5 0 0015 0v-59.051l25.288-10.115c8.986-3.594 14.793-12.171 14.793-21.85v-26.388c.001-9.678-5.806-18.255-14.792-21.849zM189.099 456.233c.028.082.088.252-.067.469-.154.217-.334.217-.42.217h-41.456a8.54 8.54 0 01-8.059-5.729L82.179 287.548h48.248zm227.74-235.136a8.49 8.49 0 01-5.364 7.922l-19.717 7.887V178.9l19.717 7.887a8.49 8.49 0 015.363 7.921v26.389zM504.5 200.403h-48.097a7.5 7.5 0 000 15H504.5a7.5 7.5 0 000-15zM448.394 175.324c1.43 0 2.875-.408 4.153-1.261l24.048-16.032a7.498 7.498 0 002.08-10.4 7.499 7.499 0 00-10.4-2.08l-24.048 16.032a7.498 7.498 0 00-2.08 10.4 7.492 7.492 0 006.247 3.341zM476.596 257.776l-24.048-16.032a7.498 7.498 0 00-10.4 2.08 7.498 7.498 0 002.08 10.4l24.048 16.032a7.493 7.493 0 0010.4-2.08 7.5 7.5 0 00-2.08-10.4z"/><path d="M55.597 168.339H39.564a7.5 7.5 0 000 15h16.032a7.5 7.5 0 00.001-15zM55.597 232.468H39.564a7.5 7.5 0 000 15h16.032a7.5 7.5 0 00.001-15zM55.597 200.403H39.564a7.5 7.5 0 000 15h16.032a7.5 7.5 0 00.001-15z"/></g></svg>