<svg id="Capa_1" enable-background="new 0 0 512 512" height="512" viewBox="0 0 512 512" width="512" xmlns="http://www.w3.org/2000/svg"><g><g><path d="m384.258 247.984 30.003-12.001c6.087-2.435 10.078-8.33 10.078-14.886v-26.388c0-6.556-3.991-12.451-10.078-14.886l-30.003-12.001-24.048 40.081z" fill="#dad8db"/><path d="m376.242 47.581h-15.512c-5.336 0-10.219 2.732-13.283 7.101-35.527 50.672-93.643 81.076-155.884 81.076h-31.757c-13.282 0-24.048 10.767-24.048 24.048v96.194c0 13.282 10.767 24.048 24.048 24.048h31.757c62.241 0 120.357 30.404 155.884 81.076 3.064 4.37 7.946 7.101 13.283 7.101h15.512l8.016-112.225v-200.403c0-4.428-3.589-8.016-8.016-8.016z" fill="#eceaec"/><path d="m196.183 453.77-60.425-173.721-32.065-8.016-32.065 8.016 60.385 173.606c2.242 6.445 8.318 10.765 15.142 10.765h41.455c5.517-.001 9.385-5.441 7.573-10.65z" fill="#eceaec"/><path d="m111.71 256-40.081 24.048 60.385 173.606c2.241 6.445 8.318 10.765 15.142 10.765h15.562l-50.376-144.83c-1.256-3.612-.707-7.471 1.51-10.588 2.215-3.117 5.68-4.905 9.504-4.905h20.766l-8.364-24.048h55.806c62.24 0 120.357 30.404 155.884 81.076 3.064 4.37 7.946 7.101 13.283 7.101h15.512c4.427 0 8.016-3.589 8.016-8.016v-104.209z" fill="#dad8db"/><path d="m159.806 135.758h-128.258c-13.282 0-24.048 10.767-24.048 24.048v96.194c0 13.282 10.767 24.048 24.048 24.048h128.258z" fill="#ff8086"/><path d="m414.261 179.823-46.035-20.017v48.097h56.113v-13.195c0-6.555-3.991-12.45-10.078-14.885z" fill="#eceaec"/><path d="m31.548 239.968v-104.21c-13.282 0-24.048 10.767-24.048 24.048v96.194c0 13.282 10.767 24.048 24.048 24.048h128.258v-24.048h-112.225c-8.84 0-16.033-7.192-16.033-16.032z" fill="#e5646e"/></g><g><path d="m417.046 172.86-25.288-10.115v-107.148c0-8.556-6.961-15.516-15.517-15.516h-15.511c-7.642 0-14.903 3.849-19.424 10.295-34.191 48.768-90.17 77.882-149.744 77.882h-160.014c-17.396 0-31.548 14.153-31.548 31.549v96.193c0 17.396 14.152 31.548 31.548 31.548h34.749l58.633 168.569c3.287 9.452 12.219 15.802 22.227 15.802h41.456c5.013 0 9.74-2.439 12.646-6.525 2.905-4.086 3.656-9.353 2.009-14.089l-56.959-163.757h45.255c59.574 0 115.553 29.115 149.744 77.882 4.52 6.447 11.781 10.295 19.423 10.295h15.511c8.556 0 15.517-6.96 15.517-15.516v-16.032c0-4.142-3.358-7.5-7.5-7.5s-7.5 3.358-7.5 7.5v16.032c0 .285-.232.516-.517.516h-15.512c-2.757 0-5.426-1.46-7.142-3.907-36.996-52.768-97.566-84.271-162.026-84.271h-24.256v-80.677c0-4.142-3.358-7.5-7.5-7.5s-7.5 3.358-7.5 7.5v80.677h-120.758c-9.125.001-16.548-7.422-16.548-16.547v-96.193c0-9.125 7.423-16.548 16.548-16.548h120.758v16.549c0 4.142 3.358 7.5 7.5 7.5s7.5-3.358 7.5-7.5v-16.549h24.256c64.459 0 125.03-31.503 162.025-84.271 1.716-2.446 4.385-3.907 7.142-3.907h15.511c.285 0 .517.231.517.516v256.516c0 4.142 3.358 7.5 7.5 7.5s7.5-3.358 7.5-7.5v-59.051l25.288-10.115c8.986-3.594 14.793-12.171 14.793-21.85v-26.388c.001-9.678-5.806-18.255-14.792-21.849zm-227.947 283.373c.028.082.088.252-.067.469-.154.217-.334.217-.42.217h-41.456c-3.628 0-6.867-2.302-8.059-5.729l-56.918-163.642h48.248zm227.74-235.136c0 3.509-2.105 6.619-5.364 7.922l-19.717 7.887v-58.006l19.717 7.887c3.258 1.303 5.363 4.412 5.363 7.921v26.389z"/><path d="m504.5 200.403h-48.097c-4.142 0-7.5 3.358-7.5 7.5s3.358 7.5 7.5 7.5h48.097c4.142 0 7.5-3.358 7.5-7.5s-3.358-7.5-7.5-7.5z"/><path d="m448.394 175.324c1.43 0 2.875-.408 4.153-1.261l24.048-16.032c3.447-2.297 4.378-6.954 2.08-10.4-2.298-3.447-6.954-4.378-10.4-2.08l-24.048 16.032c-3.447 2.297-4.378 6.954-2.08 10.4 1.445 2.168 3.823 3.341 6.247 3.341z"/><path d="m476.596 257.776-24.048-16.032c-3.446-2.298-8.103-1.367-10.4 2.08-2.298 3.446-1.367 8.103 2.08 10.4l24.048 16.032c1.279.853 2.724 1.261 4.153 1.261 2.423 0 4.802-1.173 6.247-3.341 2.298-3.446 1.366-8.103-2.08-10.4z"/><path d="m55.597 168.339h-16.033c-4.142 0-7.5 3.358-7.5 7.5s3.358 7.5 7.5 7.5h16.032c4.142 0 7.5-3.358 7.5-7.5s-3.357-7.5-7.499-7.5z"/><path d="m55.597 232.468h-16.033c-4.142 0-7.5 3.358-7.5 7.5s3.358 7.5 7.5 7.5h16.032c4.142 0 7.5-3.358 7.5-7.5s-3.357-7.5-7.499-7.5z"/><path d="m55.597 200.403h-16.033c-4.142 0-7.5 3.358-7.5 7.5s3.358 7.5 7.5 7.5h16.032c4.142 0 7.5-3.358 7.5-7.5s-3.357-7.5-7.499-7.5z"/></g></g></svg>