<?xml version="1.0" encoding="iso-8859-1"?>
<!-- Generator: Adobe Illustrator 19.0.0, SVG Export Plug-In . SVG Version: 6.00 Build 0)  -->
<svg version="1.1" id="Capa_1" xmlns="http://www.w3.org/2000/svg" xmlns:xlink="http://www.w3.org/1999/xlink" x="0px" y="0px"
	 viewBox="0 0 512 512" style="enable-background:new 0 0 512 512;" xml:space="preserve">
<rect x="214" y="391.47" style="fill:#333940;" width="85" height="46.67"/>
<rect x="214" y="391.47" style="fill:#636978;" width="42" height="46.67"/>
<path style="fill:#7E8596;" d="M312.026,429H199.974C168.052,429,142,454.976,142,486.897V497c0,8.284,6.798,15,15.083,15h197.835
	c8.284,0,15.083-6.716,15.083-15v-10.103C370,454.976,343.948,429,312.026,429z"/>
<path style="fill:#DCE1EB;" d="M256,429h-56.026C168.052,429,142,454.976,142,486.897V497c0,8.284,6.798,15,15.083,15H256V429z"/>
<path style="fill:#FFA547;" d="M371,195.194v60.659c0,63.671-51.329,115.471-115,115.471s-115-51.8-115-115.471v-60.659h-30v60.659
	c0,80.213,64.787,145.471,145,145.471s145-65.258,145-145.471v-60.659L371,195.194L371,195.194z"/>
<path style="fill:#FFD15E;" d="M256,371.324c-63.671,0-115-51.8-115-115.471v-60.659h-30v60.659
	c0,80.213,64.787,145.471,145,145.471V371.324z"/>
<path style="fill:#DCE1EB;" d="M399.82,200.568H112.18c-8.284,0-15-6.716-15-15s6.716-15,15-15h287.64c8.284,0,15,6.716,15,15
	S408.104,200.568,399.82,200.568z"/>
<path style="fill:#333940;" d="M353,97.5C353,43.652,309.348,0,255.5,0l0,0C201.652,0,158,43.652,158,97.5v158
	c0,53.848,43.652,97.5,97.5,97.5l0,0c53.848,0,97.5-43.652,97.5-97.5V97.5z"/>
<path style="fill:#636978;" d="M255.5,0L255.5,0C201.652,0,158,43.652,158,97.5v158c0,53.848,43.652,97.5,97.5,97.5l0,0V0z"/>
<g>
	<path style="fill:#333940;" d="M234.37,107c0-8.284-6.716-15-15-15h-61.227C158.05,94,158,95.732,158,97.5V122h61.37
		C227.654,122,234.37,115.284,234.37,107z"/>
	<path style="fill:#333940;" d="M234.37,156c0-8.284-6.716-15-15-15H158v30h61.37C227.654,171,234.37,164.284,234.37,156z"/>
	<path style="fill:#333940;" d="M234.37,205c0-8.284-6.716-15-15-15H158v30h61.37C227.654,220,234.37,213.284,234.37,205z"/>
</g>
<g>
	<path style="fill:#212121;" d="M277.63,107c0,8.284,6.716,15,15,15H353V97.5c0-1.768-0.05-3.5-0.143-5.5H292.63
		C284.346,92,277.63,98.716,277.63,107z"/>
	<path style="fill:#212121;" d="M277.63,156c0,8.284,6.716,15,15,15H353v-30h-60.37C284.346,141,277.63,147.716,277.63,156z"/>
	<path style="fill:#212121;" d="M277.63,205c0,8.284,6.716,15,15,15H353v-30h-60.37C284.346,190,277.63,196.716,277.63,205z"/>
</g>
<g>
</g>
<g>
</g>
<g>
</g>
<g>
</g>
<g>
</g>
<g>
</g>
<g>
</g>
<g>
</g>
<g>
</g>
<g>
</g>
<g>
</g>
<g>
</g>
<g>
</g>
<g>
</g>
<g>
</g>
</svg>
