<svg xmlns="http://www.w3.org/2000/svg" viewBox="0 0 512 512"><linearGradient id="a" gradientUnits="userSpaceOnUse" x1="236.938" y1="469.197" x2="236.938" y2="408.967" gradientTransform="matrix(1.0667 0 0 -1.0667 3.267 557.532)"><stop offset="0" stop-color="#5b6a6a"/><stop offset="1" stop-color="#303033"/></linearGradient><path d="M412.098 149.813l-4.721 1.542c-15.229 4.975-32.015-.398-41.302-13.453C341.583 103.48 301.369 80.984 256 80.984s-85.583 22.496-110.074 56.919c-9.287 13.054-26.074 18.428-41.302 13.453l-4.721-1.542c10.348-24.3 26.209-45.711 46.01-62.635C175.547 61.793 214.025 46.456 256 46.456s80.454 15.337 110.089 40.722c19.8 16.924 35.661 38.335 46.009 62.635z" fill="url(#a)"/><linearGradient id="b" gradientUnits="userSpaceOnUse" x1="236.938" y1="485.657" x2="236.938" y2="335.687" gradientTransform="matrix(1.0667 0 0 -1.0667 3.267 557.532)"><stop offset="0" stop-color="#ffcf95"/><stop offset=".427" stop-color="#ffc954"/><stop offset="1" stop-color="#ffc200"/></linearGradient><path d="M471.753 278.877h-43.941v-50.01c0-94.737-77.074-171.81-171.811-171.81S84.189 134.131 84.189 228.868v50.01H40.247v-50.01c0-118.966 96.786-215.753 215.753-215.753s215.753 96.786 215.753 215.753v50.009z" fill="url(#b)"/><linearGradient id="c" gradientUnits="userSpaceOnUse" x1="236.938" y1="604.847" x2="236.938" y2="239.297" gradientTransform="matrix(1.0667 0 0 -1.0667 3.267 557.532)"><stop offset="0" stop-color="#ffc200" stop-opacity="0"/><stop offset=".203" stop-color="#fb0" stop-opacity=".203"/><stop offset=".499" stop-color="#ffa700" stop-opacity=".499"/><stop offset=".852" stop-color="#f80" stop-opacity=".852"/><stop offset="1" stop-color="#ff7800"/></linearGradient><path d="M446.643 278.877v-50.01c0-105.121-85.522-190.643-190.643-190.643S65.357 123.747 65.357 228.868v50.01H59.08v-50.01c0-108.581 88.338-196.921 196.921-196.921s196.921 88.338 196.921 196.921v50.01h-6.279z" fill="url(#c)"/><linearGradient id="d" gradientUnits="userSpaceOnUse" x1="236.938" y1="493.507" x2="236.938" y2="344.447" gradientTransform="matrix(1.0667 0 0 -1.0667 3.267 557.532)"><stop offset="0" stop-color="#fff"/><stop offset="1" stop-color="#e8efee"/></linearGradient><path d="M256 45.358c-100.59 0-182.427 81.836-182.427 182.427v51.092h10.615v-50.01c0-94.737 77.074-171.81 171.811-171.81S427.81 134.13 427.81 228.867v50.01h10.615v-51.092C438.427 127.194 356.59 45.358 256 45.358z" fill="url(#d)"/><linearGradient id="e" gradientUnits="userSpaceOnUse" x1="268.333" y1="346.286" x2="211.803" y2="286.057" gradientTransform="matrix(1.0667 0 0 -1.0667 3.267 557.532)"><stop offset="0" stop-color="#5b6a6a"/><stop offset="1" stop-color="#303033"/></linearGradient><path d="M141.751 351.478v52.327a30.733 30.733 0 008.732 21.457 30.73 30.73 0 018.732 21.457v8.612c0 24.053-19.499 43.553-43.553 43.553H83.886V261.61h31.776c24.053 0 43.553 19.499 43.553 43.553v3.402a30.733 30.733 0 01-8.732 21.457 30.729 30.729 0 00-8.732 21.456z" fill="url(#e)"/><linearGradient id="f" gradientUnits="userSpaceOnUse" x1="50.648" y1="228.287" x2="50.648" y2="57.947" gradientTransform="matrix(1.0667 0 0 -1.0667 3.267 557.532)"><stop offset="0" stop-color="#ffcf95"/><stop offset=".427" stop-color="#ffc954"/><stop offset="1" stop-color="#ffc200"/></linearGradient><path d="M83.887 498.883H51.151c-11.298 0-20.457-9.158-20.457-20.457V282.065c0-11.298 9.158-20.457 20.457-20.457h32.736v237.275z" fill="url(#f)"/><linearGradient id="g" gradientUnits="userSpaceOnUse" x1="11.325" y1="135.247" x2="11.325" y2="263.427" gradientTransform="matrix(1.0667 0 0 -1.0667 3.267 557.532)"><stop offset="0" stop-color="#ffcf95"/><stop offset=".427" stop-color="#ffc954"/><stop offset="1" stop-color="#ffc200"/></linearGradient><path d="M9.185 451.836l21.508 28.244V280.41L9.185 308.655A44.938 44.938 0 000 335.878v88.736a44.935 44.935 0 009.185 27.222z" fill="url(#g)"/><linearGradient id="h" gradientUnits="userSpaceOnUse" x1="96.471" y1="603.76" x2="73.291" y2="238.21" gradientTransform="matrix(1.0667 0 0 -1.0667 3.267 557.532)"><stop offset="0" stop-color="#ffc200" stop-opacity="0"/><stop offset=".203" stop-color="#fb0" stop-opacity=".203"/><stop offset=".499" stop-color="#ffa700" stop-opacity=".499"/><stop offset=".852" stop-color="#f80" stop-opacity=".852"/><stop offset="1" stop-color="#ff7800"/></linearGradient><path fill="url(#h)" d="M69.261 261.61h14.626v237.269H69.261z"/><linearGradient id="i" gradientUnits="userSpaceOnUse" x1="50.647" y1="85.864" x2="50.647" y2="52.404" gradientTransform="matrix(1.0667 0 0 -1.0667 3.267 557.532)"><stop offset="0" stop-color="#ffc200" stop-opacity="0"/><stop offset=".203" stop-color="#fb0" stop-opacity=".203"/><stop offset=".499" stop-color="#ffa700" stop-opacity=".499"/><stop offset=".852" stop-color="#f80" stop-opacity=".852"/><stop offset="1" stop-color="#ff7800"/></linearGradient><path d="M30.693 465.944v12.482c0 11.298 9.158 20.457 20.457 20.457h32.737v-32.939H30.693z" fill="url(#i)"/><linearGradient id="j" gradientUnits="userSpaceOnUse" x1="110.276" y1="80.957" x2="110.276" y2="63.297" gradientTransform="matrix(1.0667 0 0 -1.0667 3.267 557.532)"><stop offset="0" stop-color="#5b6a6a" stop-opacity="0"/><stop offset="1" stop-color="#303033"/></linearGradient><path d="M83.887 465.944v32.939h31.773c20.391 0 37.503-14.016 42.242-32.939H83.887z" fill="url(#j)"/><linearGradient id="k" gradientUnits="userSpaceOnUse" x1="532.734" y1="334.732" x2="476.204" y2="274.502" gradientTransform="matrix(1.0667 0 0 -1.0667 3.267 557.532)"><stop offset="0" stop-color="#5b6a6a"/><stop offset="1" stop-color="#303033"/></linearGradient><path d="M428.114 261.61v237.273h-31.776c-24.053 0-43.553-19.499-43.553-43.553v-8.612a30.733 30.733 0 018.732-21.457 30.73 30.73 0 008.732-21.457v-52.327a30.733 30.733 0 00-8.732-21.457 30.73 30.73 0 01-8.732-21.457v-3.402c0-24.053 19.499-43.553 43.553-43.553h31.776v.002z" fill="url(#k)"/><linearGradient id="l" gradientUnits="userSpaceOnUse" x1="423.228" y1="228.287" x2="423.228" y2="57.947" gradientTransform="matrix(1.0667 0 0 -1.0667 3.267 557.532)"><stop offset="0" stop-color="#ffcf95"/><stop offset=".427" stop-color="#ffc954"/><stop offset="1" stop-color="#ffc200"/></linearGradient><path d="M428.113 498.883h32.736c11.298 0 20.457-9.158 20.457-20.457V282.065c0-11.298-9.158-20.457-20.457-20.457h-32.736v237.275z" fill="url(#l)"/><linearGradient id="m" gradientUnits="userSpaceOnUse" x1="462.55" y1="135.247" x2="462.55" y2="263.427" gradientTransform="matrix(1.0667 0 0 -1.0667 3.267 557.532)"><stop offset="0" stop-color="#ffcf95"/><stop offset=".427" stop-color="#ffc954"/><stop offset="1" stop-color="#ffc200"/></linearGradient><path d="M502.815 451.836l-21.508 28.244V280.41l21.508 28.244A44.935 44.935 0 01512 335.876v88.736a44.936 44.936 0 01-9.185 27.224z" fill="url(#m)"/><linearGradient id="n" gradientUnits="userSpaceOnUse" x1="377.408" y1="603.76" x2="400.588" y2="238.21" gradientTransform="matrix(1.0667 0 0 -1.0667 3.267 557.532)"><stop offset="0" stop-color="#ffc200" stop-opacity="0"/><stop offset=".203" stop-color="#fb0" stop-opacity=".203"/><stop offset=".499" stop-color="#ffa700" stop-opacity=".499"/><stop offset=".852" stop-color="#f80" stop-opacity=".852"/><stop offset="1" stop-color="#ff7800"/></linearGradient><path fill="url(#n)" d="M428.117 261.61h14.626v237.269h-14.626z"/><linearGradient id="o" gradientUnits="userSpaceOnUse" x1="423.228" y1="85.864" x2="423.228" y2="52.404" gradientTransform="matrix(1.0667 0 0 -1.0667 3.267 557.532)"><stop offset="0" stop-color="#ffc200" stop-opacity="0"/><stop offset=".203" stop-color="#fb0" stop-opacity=".203"/><stop offset=".499" stop-color="#ffa700" stop-opacity=".499"/><stop offset=".852" stop-color="#f80" stop-opacity=".852"/><stop offset="1" stop-color="#ff7800"/></linearGradient><path d="M481.307 465.944v12.482c0 11.298-9.158 20.457-20.457 20.457h-32.736v-32.939h53.193z" fill="url(#o)"/><linearGradient id="p" gradientUnits="userSpaceOnUse" x1="363.599" y1="80.957" x2="363.599" y2="63.297" gradientTransform="matrix(1.0667 0 0 -1.0667 3.267 557.532)"><stop offset="0" stop-color="#5b6a6a" stop-opacity="0"/><stop offset="1" stop-color="#303033"/></linearGradient><path d="M428.113 465.944v32.939H396.34c-20.391 0-37.503-14.016-42.242-32.939h74.015z" fill="url(#p)"/></svg>