<svg xmlns="http://www.w3.org/2000/svg" viewBox="0 0 512 512"><path d="M512 307.712V204.288l-55.396-13.849a210.2 210.2 0 00-12.407-29.912l29.388-48.981-73.131-73.131-48.981 29.389a210.131 210.131 0 00-29.912-12.407L307.712 0H256l-60 150h60c58.542 0 106 47.458 106 106s-47.458 106-106 106h-60l60 150h51.711l13.85-55.396a210.296 210.296 0 0029.912-12.407l48.981 29.389 73.132-73.131-29.389-48.981a210.083 210.083 0 0012.407-29.912L512 307.712z" fill="#636363"/><path d="M150 256c0-58.542 47.458-106 106-106V0h-51.711l-13.85 55.396a210.296 210.296 0 00-29.912 12.407l-48.981-29.389-73.132 73.131 29.389 48.981a210.2 210.2 0 00-12.407 29.912L0 204.288v103.424l55.396 13.849a210.2 210.2 0 0012.407 29.912l-29.388 48.981 73.131 73.131 48.981-29.389a210.131 210.131 0 0029.912 12.407L204.288 512H256V362c-58.542 0-106-47.458-106-106z" fill="#828282"/><path d="M256 105l-30 45h30c58.542 0 106 47.458 106 106s-47.458 106-106 106h-30l30 45c83.395 0 151-67.605 151-151s-67.605-151-151-151z" fill="#242424"/><path d="M150 256c0-58.542 47.458-106 106-106v-45c-83.395 0-151 67.605-151 151s67.605 151 151 151v-45c-58.542 0-106-47.458-106-106z" fill="#434343"/><path d="M256 135l-20 22.5 20 22.5c41.974 0 76 34.026 76 76s-34.026 76-76 76l-20 22.5 20 22.5c66.826 0 121-54.173 121-121s-54.174-121-121-121z" fill="#3f3f3f"/><path d="M180 256c0-41.974 34.026-76 76-76v-45c-66.826 0-121 54.173-121 121s54.174 121 121 121v-45c-41.974 0-76-34.026-76-76z" fill="#636363"/></svg>